<svg width="1440" height="807" viewBox="0 0 1440 807" fill="none" xmlns="http://www.w3.org/2000/svg">
<g opacity="0.4">
<rect width="18.2916" height="26.0378" transform="translate(1420.6) scale(-1 1)" fill="white"/>
<rect width="80.8681" height="26.0378" transform="translate(1333) scale(-1 1)" fill="white"/>
<rect width="32.7323" height="26.0378" transform="translate(1384.02) scale(-1 1)" fill="#FB4469"/>
<rect width="21.1797" height="26.0378" transform="translate(1209.77) scale(-1 1)" fill="#FB4469"/>
<rect width="19.2543" height="26.0378" transform="translate(773.658) scale(-1 1)" fill="white"/>
<rect width="248.381" height="26.0378" transform="translate(1161.63) scale(-1 1)" fill="#C960FF"/>
<rect width="80.8681" height="26.0378" transform="translate(881.483) scale(-1 1)" fill="white"/>
<rect width="80.8681" height="26.0378" transform="translate(747.665) scale(-1 1)" fill="#FB4469"/>
<rect width="19.2543" height="26.0378" transform="translate(394.348) scale(-1 1)" fill="white"/>
<rect width="15.4035" height="26.0378" transform="translate(1420.6 416.86) scale(-1 1)" fill="#FB4469"/>
<rect width="127.078" height="26.0378" transform="translate(226 755.597) scale(1 -1)" fill="#FB4469"/>
<rect width="127.078" height="26.0378" transform="translate(741.149 754.498) scale(1 -1)" fill="#C960FF"/>
<rect width="15.4035" height="26.0378" transform="translate(716.118 754.498) scale(1 -1)" fill="white"/>
<rect width="134.78" height="26.0378" transform="translate(1015.52 754.498) scale(1 -1)" fill="#FB4469"/>
<rect width="134.78" height="26.0378" transform="translate(1251.7 546.708) scale(1 -1)" fill="white"/>
<rect width="15.4035" height="26.0378" transform="translate(990.492 754.498) scale(1 -1)" fill="white"/>
<rect width="15.4035" height="26.0378" transform="translate(1356.63 598.613) scale(1 -1)" fill="#C960FF"/>
<rect width="165.587" height="26.0378" transform="translate(1434.08 52.0755) scale(-1 1)" fill="#C960FF"/>
<rect width="248.381" height="26.0378" transform="translate(1132.75 52.0755) scale(-1 1)" fill="#FB4469"/>
<rect width="108.787" height="26.0378" transform="translate(1434.08 104.151) scale(-1 1)" fill="white"/>
<rect width="108.787" height="26.0378" transform="translate(1250.2 104.151) scale(-1 1)" fill="#C960FF"/>
<rect width="181.612" height="26.0378" transform="translate(1367.31 156.227) scale(-1 1)" fill="#FB4469"/>
<rect width="195.856" height="26.0378" transform="translate(1434.08 208.302) scale(-1 1)" fill="#C960FF"/>
<rect width="72.2037" height="26.0378" transform="translate(1351.29 260.378) scale(-1 1)" fill="white"/>
<rect width="82.7935" height="26.0378" transform="translate(1462 155.714) scale(-1 1)" fill="white"/>
<rect width="82.7935" height="26.0378" transform="translate(1438.37 257.902) scale(-1 1)" fill="#FB4469"/>
<rect width="41.3968" height="26.0378" transform="translate(1420.6 363.334) scale(-1 1)" fill="white"/>
<rect width="229.685" height="26.0378" transform="translate(1434.08 312.453) scale(-1 1)" fill="white"/>
<rect width="158.348" height="25.9843" transform="translate(1436.23 805.513) rotate(-180)" fill="#C960FF"/>
<rect width="82.7935" height="26.0378" transform="translate(1316.2 755.01) rotate(-180)" fill="#FB4469"/>
<rect width="82.7935" height="26.0378" transform="translate(1411.51 755.01) rotate(-180)" fill="#C960FF"/>
<rect width="246.895" height="26.0378" transform="translate(1398.99 702.934) rotate(-180)" fill="#FB4469"/>
<rect width="166.55" height="26.0378" transform="translate(655.467 807) scale(1 -1)" fill="white"/>
<rect width="239.716" height="26.0378" transform="translate(993.38 807) scale(1 -1)" fill="white"/>
<rect width="43.3222" height="26.0378" transform="translate(633.324 754.498) scale(1 -1)" fill="#C960FF"/>
<rect width="43.3222" height="26.0378" transform="translate(881.705 754.498) scale(1 -1)" fill="white"/>
<rect width="43.3222" height="26.0378" transform="translate(940.431 807) scale(1 -1)" fill="#C960FF"/>
<rect width="105.899" height="26.0378" transform="translate(1231.48 598.783) scale(1 -1)" fill="white"/>
<rect width="44.264" height="26.0378" transform="translate(1172.75 755.01) scale(1 -1)" fill="#C960FF"/>
<rect width="59.6884" height="26.0378" transform="translate(1326.79 650.859) scale(1 -1)" fill="#FB4469"/>
<rect width="43.3222" height="26.0378" transform="translate(888.444 807) scale(1 -1)" fill="white"/>
<rect width="19.2543" height="26.0378" transform="translate(541.866 807) scale(1 -1)" fill="#FB4469"/>
<rect width="17.8051" height="26.0378" transform="translate(1268.49 260.378) scale(-1 1)" fill="#FB4469"/>
<rect width="127.078" height="26.0378" transform="translate(1395.57 416.604) scale(-1 1)" fill="white"/>
<rect width="50.3835" height="25.9843" transform="translate(911.833 754.544) scale(1 -1)" fill="#FB4469"/>
<rect width="17.3289" height="26.0378" transform="translate(854.749 807) scale(1 -1)" fill="#FB4469"/>
<rect width="32.7323" height="26.0378" transform="translate(1301.23 104.151) scale(-1 1)" fill="#FB4469"/>
<rect width="32.7323" height="26.0378" transform="translate(1235.76 52.0755) scale(-1 1)" fill="white"/>
<rect width="21.1797" height="26.0378" transform="translate(1126.98 104.151) scale(-1 1)" fill="white"/>
<rect width="21.1797" height="26.0378" transform="translate(864.154 52.0755) scale(-1 1)" fill="#C960FF"/>
<rect width="108.787" height="26.0378" transform="translate(1302.33 624.65) scale(-1 1)" fill="#C960FF"/>
<rect width="32.7323" height="26.0378" transform="translate(491.805 807) scale(1 -1)" fill="white"/>
<rect width="183" height="26" transform="translate(1434 469) scale(-1 1)" fill="#C960FF"/>
<rect width="19.2543" height="26.0378" transform="translate(1022.16 702.422) scale(1 -1)" fill="white"/>
<rect width="80.8681" height="26.0378" transform="translate(1048.16 702.422) scale(1 -1)" fill="#FB4469"/>
</g>
<g opacity="0.4">
<rect width="18.2764" height="26.0378" transform="translate(25.3623 807) scale(1 -1)" fill="white"/>
<rect width="80.8007" height="26.0378" transform="translate(112.896 807) scale(1 -1)" fill="white"/>
<rect width="32.705" height="26.0378" transform="translate(61.9148 807) scale(1 -1)" fill="#FB4469"/>
<rect width="21.1621" height="26.0378" transform="translate(236.021 807) scale(1 -1)" fill="#FB4469"/>
<rect width="19.2383" height="26.0378" transform="translate(671.768 807) scale(1 -1)" fill="white"/>
<rect width="248.174" height="26.0378" transform="translate(284.117 807) scale(1 -1)" fill="#C960FF"/>
<rect width="80.8007" height="26.0378" transform="translate(564.033 807) scale(1 -1)" fill="white"/>
<rect width="80.8007" height="26.0378" transform="translate(697.74 807) scale(1 -1)" fill="#FB4469"/>
<rect width="19.2383" height="26.0378" transform="translate(1050.76 807) scale(1 -1)" fill="white"/>
<rect width="15.3906" height="26.0378" transform="translate(25.3623 390.14) scale(1 -1)" fill="#FB4469"/>
<rect width="126.973" height="26.0378" transform="translate(704.25 52.5021) scale(-1 1)" fill="#C960FF"/>
<rect width="15.3906" height="26.0378" transform="translate(729.26 52.5021) scale(-1 1)" fill="white"/>
<rect width="134.668" height="26.0378" transform="translate(430.105 52.5021) scale(-1 1)" fill="#FB4469"/>
<rect width="134.668" height="26.0378" transform="translate(194.129 260.292) scale(-1 1)" fill="white"/>
<rect width="15.3906" height="26.0378" transform="translate(455.115 52.5021) scale(-1 1)" fill="white"/>
<rect width="15.3906" height="26.0378" transform="translate(89.2805 208.387) scale(-1 1)" fill="#C960FF"/>
<rect width="165.449" height="26.0378" transform="translate(11.8954 754.925) scale(1 -1)" fill="#C960FF"/>
<rect width="108.696" height="26.0378" transform="translate(11.8954 702.849) scale(1 -1)" fill="white"/>
<rect width="108.696" height="26.0378" transform="translate(195.621 702.849) scale(1 -1)" fill="#C960FF"/>
<rect width="181.46" height="26.0378" transform="translate(78.6086 650.773) scale(1 -1)" fill="#FB4469"/>
<rect width="195.692" height="26.0378" transform="translate(11.8954 598.698) scale(1 -1)" fill="#C960FF"/>
<rect width="72.1435" height="26.0378" transform="translate(94.62 546.622) scale(1 -1)" fill="white"/>
<rect width="82.7245" height="26.0378" transform="translate(-16 651.286) scale(1 -1)" fill="white"/>
<rect width="82.7245" height="26.0378" transform="translate(7.60962 549.098) scale(1 -1)" fill="#FB4469"/>
<rect width="41.3623" height="26.0378" transform="translate(25.3623 443.666) scale(1 -1)" fill="white"/>
<rect width="229.494" height="26.0378" transform="translate(11.8954 494.547) scale(1 -1)" fill="white"/>
<rect width="158.216" height="25.9843" transform="translate(9.74585 1.48651)" fill="#C960FF"/>
<rect width="82.7245" height="26.0378" transform="translate(129.68 51.9902)" fill="#FB4469"/>
<rect width="82.7245" height="26.0378" transform="translate(34.4513 51.9902)" fill="#C960FF"/>
<rect width="246.689" height="26.0378" transform="translate(46.9559 104.066)" fill="#FB4469"/>
<rect width="166.411" height="26.0378" transform="translate(789.861) scale(-1 1)" fill="white"/>
<rect width="239.516" height="26.0378" transform="translate(452.229) scale(-1 1)" fill="white"/>
<rect width="43.2861" height="26.0378" transform="translate(865.852) scale(-1 1)" fill="#C960FF"/>
<rect width="43.2861" height="26.0378" transform="translate(811.985 52.5021) scale(-1 1)" fill="#C960FF"/>
<rect width="43.2861" height="26.0378" transform="translate(563.811 52.5021) scale(-1 1)" fill="white"/>
<rect width="43.2861" height="26.0378" transform="translate(505.134) scale(-1 1)" fill="#C960FF"/>
<rect width="105.81" height="26.0378" transform="translate(214.329 208.217) scale(-1 1)" fill="white"/>
<rect width="44.2271" height="26.0378" transform="translate(273.006 51.9902) scale(-1 1)" fill="#C960FF"/>
<rect width="59.6386" height="26.0378" transform="translate(119.1 156.141) scale(-1 1)" fill="#FB4469"/>
<rect width="43.2861" height="26.0378" transform="translate(557.078) scale(-1 1)" fill="white"/>
<rect width="19.2383" height="26.0378" transform="translate(903.366) scale(-1 1)" fill="#FB4469"/>
<rect width="17.7902" height="26.0378" transform="translate(177.344 546.622) scale(1 -1)" fill="#FB4469"/>
<rect width="126.973" height="26.0378" transform="translate(50.3718 390.396) scale(1 -1)" fill="white"/>
<rect width="17.3144" height="26.0378" transform="translate(500.325 52.5021) scale(-1 1)" fill="#FB4469"/>
<rect width="17.3144" height="26.0378" transform="translate(590.745) scale(-1 1)" fill="#FB4469"/>
<rect width="32.705" height="26.0378" transform="translate(144.64 702.849) scale(1 -1)" fill="#FB4469"/>
<rect width="21.1621" height="26.0378" transform="translate(318.746 702.849) scale(1 -1)" fill="white"/>
<rect width="21.1621" height="26.0378" transform="translate(581.348 754.925) scale(1 -1)" fill="#C960FF"/>
<rect width="108.696" height="26.0378" transform="translate(143.54 182.35) scale(1 -1)" fill="#C960FF"/>
<rect width="19.2383" height="26.0378" transform="translate(423.47 104.578) scale(-1 1)" fill="white"/>
<rect width="80.8007" height="26.0378" transform="translate(397.498 104.578) scale(-1 1)" fill="#FB4469"/>
</g>
</svg>
