<svg width="7000" height="3919" viewBox="0 0 7000 3919" fill="none" xmlns="http://www.w3.org/2000/svg">
<rect width="7000" height="3918.62" fill="#352A3A"/>
<g opacity="0.8" filter="url(#filter0_f)">
<path d="M186.47 197.385C220.573 175.857 243.099 138.105 243.099 94.8936C243.099 57.7658 226.361 24.3821 199.767 2.2302C178.648 -15.5537 190.225 78.3577 172.704 94.8936C154.088 112.365 89.6371 111.741 70.3956 94.8936C52.2492 78.8257 57.568 -9.78172 43.3324 2.2302C16.895 24.3821 -9.54801e-06 57.7658 -9.54801e-06 94.8936C-9.54801e-06 137.949 22.5266 175.857 56.6294 197.385V351.044C56.6294 376.94 80.5639 388.328 121.55 388.328C162.536 388.328 186.47 379.28 186.47 351.044V197.385Z" transform="translate(1445.53 369.498) scale(1.03171 0.967254) rotate(45)" fill="white"/>
<path d="M161.068 184.701C190.525 164.557 209.983 129.231 209.983 88.7958C209.983 54.0539 195.524 22.8153 172.553 2.08689C154.312 -14.5542 164.311 73.3225 149.177 88.7958C133.097 105.145 77.4261 104.561 60.8058 88.7958C45.1314 73.7604 49.7257 -9.15315 37.4294 2.08689C14.5934 22.8153 -8.24732e-06 54.0539 -8.24732e-06 88.7958C-8.24732e-06 129.085 19.4579 164.557 48.9149 184.701V328.486C48.9149 352.718 69.5889 363.374 104.991 363.374C140.394 363.374 161.068 354.908 161.068 328.486V184.701Z" transform="matrix(0.525972 0.850502 -0.878625 0.477513 800.52 1511.15)" fill="white"/>
<path d="M181.06 192.17C214.174 171.211 236.047 134.457 236.047 92.3865C236.047 56.2397 219.794 23.7379 193.971 2.17128C173.465 -15.1428 184.706 76.2875 167.693 92.3865C149.618 109.397 87.0365 108.789 68.3533 92.3865C50.7333 76.7431 55.8978 -9.52329 42.0753 2.17128C16.4048 23.7379 -9.27101e-06 56.2397 -9.27101e-06 92.3865C-9.27101e-06 134.305 21.8731 171.211 54.9864 192.17V341.769C54.9864 366.981 78.2265 378.068 118.023 378.068C157.82 378.068 181.06 369.259 181.06 341.769V192.17Z" transform="translate(1836.97 1358.37) scale(1.03171 0.967254) rotate(-135)" fill="white"/>
<path d="M148.76 157.887C175.966 140.667 193.937 110.47 193.937 75.905C193.937 46.2067 180.583 19.5031 159.367 1.78394C142.52 -12.4413 151.755 62.678 137.777 75.905C122.926 89.8807 71.5094 89.3816 56.1592 75.905C41.6826 63.0524 45.9258 -7.82435 34.5691 1.78394C13.4782 19.5031 0 46.2067 0 75.905C0 110.345 17.971 140.667 45.177 157.887V280.799C45.177 301.513 64.2711 310.622 96.9683 310.622C129.665 310.622 148.76 303.384 148.76 280.799V157.887Z" transform="translate(3584.02 3719.29) scale(1.03171 0.967253) rotate(-135)" fill="white"/>
<path d="M60.7594 66.5993C71.8714 59.3356 79.2115 46.5979 79.2115 32.0179C79.2115 19.4907 73.7574 8.22671 65.092 0.752489C58.2107 -5.24794 61.9827 26.4385 56.2738 32.0179C50.208 37.913 29.2073 37.7025 22.9377 32.0179C17.0249 26.5964 18.7579 -3.30043 14.1194 0.752489C5.50505 8.22671 -3.11112e-06 19.4907 -3.11112e-06 32.0179C-3.11112e-06 46.5452 7.34006 59.3356 18.4521 66.5993V118.445C18.4521 127.183 26.2509 131.025 39.6057 131.025C52.9606 131.025 60.7594 127.972 60.7594 118.445V66.5993Z" transform="matrix(0.524368 -0.851491 0.879434 0.476021 4874.49 2979.75)" fill="white"/>
<path d="M86.9399 87.2625C102.84 77.7451 113.343 61.0554 113.343 41.9518C113.343 25.5379 105.539 10.7791 93.1394 0.985957C83.2931 -6.87617 88.6903 34.6414 80.5215 41.9518C71.8421 49.676 41.7924 49.4001 32.8213 41.9518C24.3607 34.8483 26.8405 -4.32443 20.2033 0.985957C7.87711 10.7791 -4.45167e-06 25.5379 -4.45167e-06 41.9518C-4.45167e-06 60.9864 10.5028 77.7451 26.4029 87.2625V155.194C26.4029 166.642 37.5621 171.677 56.6714 171.677C75.7807 171.677 86.9399 167.677 86.9399 155.194V87.2625Z" transform="matrix(-0.969866 0.24364 -0.274801 -0.961501 2470.3 3403.12)" fill="white"/>
<path d="M56.8833 63.8413C67.2864 56.8784 74.1582 44.6681 74.1582 30.6919C74.1582 18.6835 69.0521 7.88602 60.9395 0.721327C54.4972 -5.03061 58.0286 25.3437 52.6838 30.6919C47.005 36.343 27.344 36.1411 21.4744 30.6919C15.9388 25.495 17.5613 -3.16375 13.2187 0.721327C5.15386 7.88602 -2.91265e-06 18.6835 -2.91265e-06 30.6919C-2.91265e-06 44.6177 6.87181 56.8784 17.275 63.8413V113.54C17.275 121.916 24.5762 125.599 37.0791 125.599C49.582 125.599 56.8833 122.672 56.8833 113.54V63.8413Z" transform="matrix(0.274801 0.961501 -0.969866 0.24364 3771.66 2741.36)" fill="white"/>
<path d="M128.522 145.497C152.026 129.629 167.553 101.801 167.553 69.9484C167.553 42.5806 156.016 17.9726 137.686 1.64394C123.131 -11.465 131.109 57.7594 119.033 69.9484C106.203 82.8274 61.781 82.3674 48.5191 69.9484C36.0119 58.1044 39.6778 -7.21035 29.8662 1.64394C11.6446 17.9726 -6.58082e-06 42.5806 -6.58082e-06 69.9484C-6.58082e-06 101.686 15.5261 129.629 39.0309 145.497V258.763C39.0309 277.852 55.5274 286.246 83.7763 286.246C112.025 286.246 128.522 279.576 128.522 258.763V145.497Z" transform="translate(2750.88 2015.09) rotate(-90)" fill="white"/>
<path d="M104.176 104.785C123.229 93.3565 135.814 73.3154 135.814 50.3758C135.814 30.6659 126.462 12.9436 111.605 1.18394C99.8065 -8.25691 106.274 41.5974 96.4855 50.3758C86.0853 59.651 50.078 59.3197 39.3283 50.3758C29.1903 41.8459 32.1618 -5.19278 24.2088 1.18394C9.4388 12.9436 -5.33424e-06 30.6659 -5.33424e-06 50.3758C-5.33424e-06 73.2326 12.5851 93.3565 31.6374 104.785V186.357C31.6374 200.104 45.0091 206.15 67.9069 206.15C90.8047 206.15 104.176 201.347 104.176 186.357V104.785Z" transform="matrix(0.962263 -0.272122 0.306276 0.951943 2707.65 3017.33)" fill="white"/>
<path d="M76.7935 77.2421C90.8379 68.8177 100.115 54.0444 100.115 37.1345C100.115 22.6054 93.2216 9.54137 82.2695 0.872744C73.5723 -6.08658 78.3397 30.6635 71.1242 37.1345C63.4577 43.9717 36.915 43.7275 28.9908 37.1345C21.5176 30.8467 23.7081 -3.82785 17.8455 0.872744C6.95781 9.54137 0 22.6054 0 37.1345C0 53.9833 9.27707 68.8177 23.3215 77.2421V137.373C23.3215 147.507 33.1784 151.963 50.0575 151.963C66.9366 151.963 76.7935 148.423 76.7935 137.373V77.2421Z" transform="matrix(0.962263 -0.272122 0.306276 0.951943 4277.71 2653.76)" fill="white"/>
<path d="M137.63 138.434C162.801 123.336 179.427 96.8587 179.427 66.5527C179.427 40.5135 167.073 17.1001 147.444 1.56414C131.857 -10.9084 140.401 54.9554 127.469 66.5527C113.729 78.8064 66.1594 78.3687 51.9576 66.5527C38.5641 55.2836 42.4898 -6.8603 31.9828 1.56414C12.4698 17.1001 0 40.5135 0 66.5527C0 96.7493 16.6265 123.336 41.797 138.434V246.201C41.797 264.363 59.4626 272.35 89.7135 272.35C119.964 272.35 137.63 266.004 137.63 246.201V138.434Z" transform="matrix(0.962263 -0.272122 0.306276 0.951943 4280.09 3325.78)" fill="white"/>
<path d="M319.1 318.838C377.459 284.064 416.008 223.083 416.008 153.283C416.008 93.3099 387.364 39.3846 341.855 3.60248C305.715 -25.1241 325.525 126.572 295.542 153.283C263.686 181.505 153.393 180.497 120.466 153.283C89.4122 127.328 98.5141 -15.8005 74.1533 3.60248C28.9118 39.3846 -1.63392e-05 93.3099 -1.63392e-05 153.283C-1.63392e-05 222.831 38.549 284.064 96.9079 318.838V567.046C96.9079 608.875 137.866 627.271 208.004 627.271C278.142 627.271 319.1 612.655 319.1 567.046V318.838Z" transform="matrix(0.846624 -0.532192 0.583764 0.811923 1200.06 3177.46)" fill="white"/>
<path d="M180.121 181.514C213.063 161.717 234.823 127.001 234.823 87.2635C234.823 53.121 218.654 22.4216 192.966 2.05089C172.566 -14.303 183.748 72.0572 166.824 87.2635C148.842 103.33 86.5852 102.757 67.9989 87.2635C50.4703 72.4875 55.608 -8.99519 41.8571 2.05089C16.3198 22.4216 0 53.121 0 87.2635C0 126.857 21.7597 161.717 54.7013 181.514V322.817C54.7013 346.631 77.821 357.103 117.411 357.103C157.002 357.103 180.121 348.783 180.121 322.817V181.514Z" transform="matrix(0.882695 -0.469947 0.51782 0.85549 2632 2434.36)" fill="white"/>
</g>
<path d="M276.929 293.139C327.576 261.168 361.03 205.102 361.03 140.928C361.03 85.7888 336.172 36.2101 296.677 3.31211C265.313 -23.099 282.505 116.37 256.485 140.928C228.838 166.875 133.121 165.949 104.545 140.928C77.5959 117.065 85.495 -14.527 64.3535 3.31211C25.0909 36.2101 -1.41799e-05 85.7888 -1.41799e-05 140.928C-1.41799e-05 204.87 33.4546 261.168 84.101 293.139V521.34C84.101 559.798 119.646 576.711 180.515 576.711C241.384 576.711 276.929 563.273 276.929 521.34V293.139Z" transform="translate(1515.92 213.92) scale(0.999488 1.00051) rotate(45)" fill="#C960FF"/>
<path d="M215.794 228.787C255.259 203.834 281.328 160.076 281.328 109.99C281.328 66.9557 261.957 28.261 231.182 2.585C206.742 -18.0281 220.138 90.8235 199.863 109.99C178.319 130.242 103.733 129.518 81.4657 109.99C60.4657 91.366 66.6209 -11.3379 50.1467 2.585C19.5518 28.261 -1.10495e-05 66.9557 -1.10495e-05 109.99C-1.10495e-05 159.895 26.069 203.834 65.5347 228.787V406.891C65.5347 436.907 93.233 450.106 140.664 450.106C188.095 450.106 215.794 439.619 215.794 406.891V228.787Z" transform="translate(717.663 1048.04) scale(0.999489 1.00051) rotate(-46.1937)" fill="#C960FF"/>
<path d="M298.233 316.813C352.775 282.259 388.803 221.666 388.803 152.309C388.803 92.7171 362.032 39.1344 319.499 3.57959C285.723 -24.9644 304.237 125.768 276.215 152.309C246.442 180.352 143.362 179.351 112.588 152.309C83.5652 126.519 92.0718 -15.7001 69.3041 3.57959C27.0211 39.1344 -1.52707e-05 92.7171 -1.52707e-05 152.309C-1.52707e-05 221.416 36.0281 282.259 90.5707 316.813V563.443C90.5707 605.007 128.851 623.286 194.402 623.286C259.953 623.286 298.233 608.763 298.233 563.443V316.813Z" transform="matrix(-0.96586 -0.259066 0.258572 -0.965992 1644.28 1646.01)" fill="#DB99FD"/>
<path d="M248.094 264.608C293.467 235.748 323.438 185.139 323.438 127.211C323.438 77.439 301.168 32.6858 265.785 2.98974C237.687 -20.8508 253.089 105.044 229.778 127.211C205.01 150.633 119.26 149.797 93.6596 127.211C69.5162 105.671 76.5928 -13.1131 57.6527 2.98974C22.4783 32.6858 -1.27034e-05 77.439 -1.27034e-05 127.211C-1.27034e-05 184.93 29.9711 235.748 75.344 264.608V470.598C75.344 505.313 107.188 520.58 161.719 520.58C216.25 520.58 248.094 508.45 248.094 470.598V264.608Z" transform="matrix(0.865804 0.500384 -0.499616 0.866247 949.635 2627.54)" fill="#C960FF"/>
<path d="M226.067 240.151C267.411 213.959 294.721 168.028 294.721 115.454C294.721 70.2816 274.428 29.6648 242.187 2.71342C216.584 -18.9236 230.618 95.3349 209.377 115.454C186.809 136.711 108.671 135.952 85.344 115.454C63.3442 95.9043 69.7925 -11.901 52.534 2.71342C20.4826 29.6648 0 70.2816 0 115.454C0 167.838 27.3101 213.959 68.6545 240.151V427.102C68.6545 458.609 97.6715 472.464 147.361 472.464C197.05 472.464 226.067 461.456 226.067 427.102V240.151Z" transform="matrix(0.96586 -0.259066 0.258572 0.965992 1300.92 1869.49)" fill="#C960FF"/>
<path d="M233.627 247.962C276.354 220.918 304.577 173.493 304.577 119.209C304.577 72.5676 283.606 30.6296 250.287 2.80166C223.827 -19.5391 238.331 98.4358 216.379 119.209C193.056 141.158 112.306 140.374 88.1981 119.209C65.4626 99.0237 72.1264 -12.2882 54.2908 2.80166C21.1676 30.6296 -1.19626e-05 72.5676 -1.19626e-05 119.209C-1.19626e-05 173.297 28.2234 220.918 70.9505 247.962V440.994C70.9505 473.526 100.938 487.832 152.289 487.832C203.64 487.832 233.627 476.465 233.627 440.994V247.962Z" transform="translate(2026.72 1429.37) scale(0.999488 1.00051) rotate(45)" fill="#C960FF"/>
<path d="M268.895 285.394C318.072 254.268 350.556 199.683 350.556 137.204C350.556 83.5223 326.419 35.2535 288.07 3.2246C257.616 -22.4887 274.309 113.296 249.044 137.204C222.199 162.467 129.259 161.564 101.512 137.204C75.3447 113.972 83.0146 -14.1432 62.4865 3.2246C24.363 35.2535 -1.37685e-05 83.5223 -1.37685e-05 137.204C-1.37685e-05 199.458 32.484 254.268 81.6611 285.394V507.566C81.6611 545.009 116.175 561.474 175.278 561.474C234.381 561.474 268.895 548.392 268.895 507.566V285.394Z" transform="translate(1963.73 2589.96) scale(0.999488 1.00051) rotate(-135)" fill="#DB99FD"/>
<path d="M197.331 209.439C233.42 186.597 257.259 146.539 257.259 100.689C257.259 61.2936 239.545 25.8711 211.402 2.3664C189.054 -16.5035 201.304 83.143 182.763 100.689C163.063 119.228 94.858 118.566 74.4958 100.689C55.2924 83.6396 60.921 -10.3791 45.8563 2.3664C17.879 25.8711 -1.01041e-05 61.2936 -1.01041e-05 100.689C-1.01041e-05 146.374 23.8387 186.597 59.9277 209.439V372.482C59.9277 399.96 85.2563 412.043 128.629 412.043C172.003 412.043 197.331 402.442 197.331 372.482V209.439Z" transform="translate(2588.16 2482.11) scale(0.999488 1.00051) rotate(45)" fill="#C960FF"/>
<path d="M220.925 234.481C261.329 208.907 288.018 164.06 288.018 112.728C288.018 68.6221 268.186 28.9643 236.679 2.64934C211.658 -18.4768 225.373 93.084 204.615 112.728C182.56 133.483 106.2 132.742 83.4028 112.728C61.9034 93.6399 68.205 -11.6201 51.3391 2.64934C20.0167 28.9643 -1.13122e-05 68.6221 -1.13122e-05 112.728C-1.13122e-05 163.875 26.6889 208.907 67.093 234.481V417.018C67.093 447.781 95.4499 461.309 144.009 461.309C192.568 461.309 220.925 450.56 220.925 417.018V234.481Z" transform="translate(3125.08 2688.77) scale(0.999488 1.00051) rotate(-135)" fill="#EBBFFF"/>
<path d="M146.337 155.236C173.099 138.305 190.778 108.615 190.778 74.6304C190.778 45.4308 177.642 19.1756 156.772 1.75398C140.198 -12.2324 149.283 61.6256 135.533 74.6304C120.924 88.3715 70.3447 87.8807 55.2445 74.6304C41.0037 61.9936 45.1777 -7.69297 34.0061 1.75398C13.2587 19.1756 -7.49302e-06 45.4308 -7.49302e-06 74.6304C-7.49302e-06 108.492 17.6782 138.305 44.4411 155.236V276.084C44.4411 296.45 63.2243 305.406 95.3888 305.406C127.553 305.406 146.337 298.29 146.337 276.084V155.236Z" transform="matrix(0.499616 -0.866247 0.865804 0.500384 2488.89 2212.08)" fill="#C960FF"/>
<path d="M91.7473 97.3271C108.527 86.7121 119.61 68.0974 119.61 46.7904C119.61 28.4833 111.374 12.0224 98.2897 1.09968C87.8988 -7.66925 93.5946 38.6368 84.974 46.7904C75.8147 55.4055 44.1034 55.0978 34.6362 46.7904C25.7077 38.8676 28.3247 -4.8232 21.3205 1.09968C8.31268 12.0224 -4.69783e-06 28.4833 -4.69783e-06 46.7904C-4.69783e-06 68.0204 11.0836 86.7121 27.8629 97.3271V173.094C27.8629 185.863 39.6392 191.478 59.8051 191.478C79.971 191.478 91.7473 187.016 91.7473 173.094V97.3271Z" transform="matrix(0.499616 -0.866247 0.865804 0.500384 4426.54 2987.69)" fill="#DB99FD"/>
<path d="M125.602 133.427C148.573 118.875 163.747 93.3558 163.747 64.1458C163.747 39.0483 152.472 16.4817 134.559 1.50756C120.334 -10.5139 128.131 52.9679 116.33 64.1458C103.79 75.9563 60.3776 75.5345 47.417 64.1458C35.1939 53.2842 38.7765 -6.6122 29.1878 1.50756C11.3801 16.4817 -6.43134e-06 39.0483 -6.43134e-06 64.1458C-6.43134e-06 93.2504 15.1734 118.875 38.1443 133.427V237.297C38.1443 254.802 54.2661 262.5 81.8733 262.5C109.48 262.5 125.602 256.384 125.602 237.297V133.427Z" transform="matrix(-0.96586 0.259066 -0.258572 -0.965992 3525.95 2991.77)" fill="#C960FF"/>
<path d="M86.9765 92.2316C102.883 82.1724 113.391 64.5322 113.391 44.3407C113.391 26.9921 105.583 11.393 93.1787 1.0421C83.3282 -7.26774 88.7277 36.614 80.5554 44.3407C71.8724 52.5048 41.81 52.2132 32.8351 44.3407C24.3709 36.8327 26.8518 -4.57068 20.2118 1.0421C7.88043 11.393 -4.45354e-06 26.9921 -4.45354e-06 44.3407C-4.45354e-06 64.4593 10.5072 82.1724 26.414 92.2316V164.032C26.414 176.132 37.5779 181.453 56.6953 181.453C75.8126 181.453 86.9765 177.225 86.9765 164.032V92.2316Z" transform="matrix(0.258572 0.965992 -0.96586 0.259066 4104.54 2902.36)" fill="#C960FF"/>
<path d="M86.9602 92.2489C102.864 82.1877 113.369 64.5443 113.369 44.349C113.369 26.9972 105.563 11.3951 93.1612 1.0423C83.3126 -7.26909 88.7111 36.6209 80.5404 44.349C71.8589 52.5146 41.8022 52.223 32.8289 44.349C24.3664 36.8396 26.8468 -4.57154 20.208 1.0423C7.87895 11.3951 -4.45271e-06 26.9972 -4.45271e-06 44.349C-4.45271e-06 64.4713 10.5053 82.1877 26.4091 92.2489V164.062C26.4091 176.165 37.5709 181.487 56.6847 181.487C75.7984 181.487 86.9602 177.258 86.9602 164.062V92.2489Z" transform="matrix(-0.499616 0.866247 -0.865804 -0.500384 3893.63 2793.98)" fill="#C960FF"/>
<path d="M197.423 209.341C233.529 186.509 257.379 146.471 257.379 100.642C257.379 61.2649 239.657 25.859 211.501 2.36529C189.142 -16.4958 201.398 83.1041 182.848 100.642C163.139 119.172 94.9023 118.51 74.5306 100.642C55.3183 83.6004 60.9495 -10.3742 45.8778 2.36529C17.8874 25.859 -1.01089e-05 61.2649 -1.01089e-05 100.642C-1.01089e-05 146.305 23.8498 186.509 59.9558 209.341V372.308C59.9558 399.772 85.2962 411.85 128.69 411.85C172.083 411.85 197.423 402.254 197.423 372.308V209.341Z" transform="translate(3543.75 3297.34) rotate(-56.628)" fill="#C960FF"/>
<path d="M150.657 160.038C178.21 142.583 196.411 111.975 196.411 76.9389C196.411 46.8361 182.887 19.7688 161.401 1.80823C144.338 -12.6108 153.691 63.5318 139.535 76.9389C124.495 91.105 72.4217 90.5991 56.8757 76.9389C42.2144 63.9112 46.5117 -7.93093 35.0102 1.80823C13.6502 19.7688 -7.71426e-06 46.8361 -7.71426e-06 76.9389C-7.71426e-06 111.848 18.2002 142.583 45.7533 160.038V284.624C45.7533 305.62 65.0911 314.853 98.2054 314.853C131.32 314.853 150.657 307.517 150.657 284.624V160.038Z" transform="matrix(0.957312 -0.289057 0.288516 0.957475 2904.28 3046.03)" fill="#C960FF"/>
<path d="M459.96 487.933C544.08 434.716 599.645 341.395 599.645 234.576C599.645 142.796 558.357 60.2721 492.759 5.51304C440.666 -38.4485 469.22 193.699 426.003 234.576C380.084 277.766 221.105 276.223 173.642 234.576C128.881 194.856 142.001 -24.1803 106.887 5.51304C41.6742 60.2721 -2.35518e-05 142.796 -2.35518e-05 234.576C-2.35518e-05 341.009 55.5656 434.716 139.686 487.933V867.776C139.686 931.79 198.724 959.941 299.823 959.941C400.921 959.941 459.96 937.575 459.96 867.776V487.933Z" transform="matrix(0.499616 -0.866247 0.865804 0.500384 573.611 2420.41)" fill="#EBBFFF"/>
<path d="M282.09 296.44C333.681 264.109 367.759 207.412 367.759 142.515C367.759 86.7548 342.437 36.6179 302.206 3.3494C270.258 -23.3591 287.77 117.68 261.265 142.515C233.103 168.755 135.602 167.817 106.494 142.515C79.0421 118.383 87.0884 -14.6905 65.5529 3.3494C25.5586 36.6179 -1.44442e-05 86.7548 -1.44442e-05 142.515C-1.44442e-05 207.177 34.0781 264.109 85.6684 296.44V527.211C85.6684 566.102 121.876 583.205 183.879 583.205C245.883 583.205 282.09 569.616 282.09 527.211V296.44Z" transform="matrix(0.499616 0.866247 -0.865804 0.500384 1029.94 1332.14)" fill="#C960FF"/>
<path d="M509.872 542.919C603.12 483.706 664.715 379.867 664.715 261.011C664.715 158.889 618.947 67.0644 546.23 6.13432C488.484 -42.7814 520.138 215.528 472.23 261.011C421.329 309.068 245.098 307.352 192.485 261.011C142.867 216.815 157.41 -26.9052 118.485 6.13432C46.1965 67.0644 -2.61075e-05 158.889 -2.61075e-05 261.011C-2.61075e-05 379.438 61.5953 483.706 154.844 542.919V965.568C154.844 1036.8 220.289 1068.12 332.358 1068.12C444.427 1068.12 509.872 1043.23 509.872 965.568V542.919Z" transform="matrix(0.865804 -0.500384 0.499616 0.866247 1246.85 2808.62)" fill="#C960FF"/>
<defs>
<filter id="filter0_f" x="521.085" y="399.207" width="4496.19" height="3296.57" filterUnits="userSpaceOnUse" color-interpolation-filters="sRGB">
<feFlood flood-opacity="0" result="BackgroundImageFix"/>
<feBlend mode="normal" in="SourceGraphic" in2="BackgroundImageFix" result="shape"/>
<feGaussianBlur stdDeviation="0.5" result="effect1_foregroundBlur"/>
</filter>
</defs>
</svg>
